8888888888                888      8888888888                       
888                       888      888                              
888                       888      888                              
8888888  .d88b.   .d88b.  888      8888888 888d888 .d88b.   .d88b.  
888     d8P  Y8b d8P  Y8b 888      888     888P"  d8P  Y8b d8P  Y8b 
888     88888888 88888888 888      888     888    88888888 88888888 
888     Y8b.     Y8b.     888      888     888    Y8b.     Y8b.     
888      "Y8888   "Y8888  888      888     888     "Y8888   "Y8888  


################Credits To Feel Free, Pitic & Tony################


Genre:Action | Crime | Drama
Language:English
IMDb: 
http://www.imdb.com/title/tt1815708
Source:BluRay.1080p.DTS.x264-CHD Thanks
Encoder:Tony

Format : MPEG-4
Format profile : Base Media
Codec ID : isom
File size : 2.27 GiB
Duration : 1h 36mn
Overall bit rate mode : Variable
Overall bit rate : 3 371 Kbps

Video
ID : 1
Format : AVC
Format/Info : Advanced Video Codec
Format profile : High@L4.1
Format settings, CABAC : Yes
Format settings, ReFrames : 3 frames
Codec ID : avc1
Codec ID/Info : Advanced Video Coding
Duration : 1h 36mn
Bit rate : 3 000 Kbps
Maximum bit rate : 21.8 Mbps
Width : 1 280 pixels
Height : 528 pixels
Display aspect ratio : 2.40:1
Frame rate mode : Constant
Frame rate : 23.976 fps
Color space : YUV
Chroma subsampling : 4:2:0
Bit depth : 8 bits
Scan type : Progressive
Bits/(Pixel*Frame) : 0.185
Stream size : 1.99 GiB (87%)
Writing library : x264

Audio
ID : 2
Format : AAC
Format/Info : Advanced Audio Codec
Format profile : LC
Codec ID : 40
Duration : 1h 36mn
Bit rate mode : Variable
Bit rate : 423 Kbps
Maximum bit rate : 545 Kbps
Channel(s) : 6 channels
Channel positions : Front: L C R, Side: L R, LFE
Sampling rate : 48.0 KHz
Compression mode : Lossy
Stream size : 292 MiB (13%)

Plot:
The son of a slain NYPD officer joins the force, where he falls in with his father's former partner and a team of rogue cops.


Screen Shots:
                                               
http://img641.imageshack.us/img641/2015/vlcsnap2012081716h15m19.png
 
http://img11.imageshack.us/img11/407/vlcsnap2012081716h15m25.png
 
http://img716.imageshack.us/img716/4116/vlcsnap2012081716h16m11.png
 
http://img27.imageshack.us/img27/8296/vlcsnap2012081716h16m19.png
 
http://img811.imageshack.us/img811/125/vlcsnap2012081716h16m39.png
 
http://img806.imageshack.us/img806/9806/vlcsnap2012081716h16m51.png


################Credits To Feel Free, Pitic & Tony################


8888888888                888      8888888888                       
888                       888      888                              
888                       888      888                              
8888888  .d88b.   .d88b.  888      8888888 888d888 .d88b.   .d88b.  
888     d8P  Y8b d8P  Y8b 888      888     888P"  d8P  Y8b d8P  Y8b 
888     88888888 88888888 888      888     888    88888888 88888888 
888     Y8b.     Y8b.     888      888     888    Y8b.     Y8b.     
888      "Y8888   "Y8888  888      888     888     "Y8888   "Y8888  